{"glyphs":{"0":{"ha":761,"x_min":21,"x_max":744,"o":"m 744 651 l 744 289 q 456 0 744 0 l 311 0 q 21 289 21 0 l 21 651 q 311 940 21 940 l 456 940 q 744 651 744 940 m 456 289 l 456 651 l 311 651 l 311 289 l 456 289 z "},"1":{"ha":513,"x_min":22,"x_max":493,"o":"m 493 803 l 493 138 q 356 0 493 0 l 342 0 q 204 138 204 0 l 204 650 l 160 650 q 22 788 22 650 l 22 803 q 160 940 22 940 l 356 940 q 493 803 493 940 z "},"2":{"ha":761,"x_min":18,"x_max":742,"o":"m 742 151 l 742 138 q 604 0 742 0 l 589 0 l 589 -1 q 372 0 481 0 q 156 0 264 0 q 18 136 18 0 l 18 440 q 156 578 18 578 l 307 578 l 379 578 l 451 578 l 451 650 l 307 650 l 156 650 q 18 788 18 650 l 18 801 q 156 939 18 939 l 451 939 l 604 939 q 742 801 742 939 l 742 499 q 604 361 742 361 l 451 361 l 307 361 l 307 289 l 604 289 q 742 151 742 289 z "},"3":{"ha":761,"x_min":15,"x_max":739,"o":"m 739 332 l 739 289 q 450 0 739 0 l 153 0 q 15 138 15 0 l 15 151 q 153 289 15 289 l 450 289 l 450 361 l 189 361 q 88 463 88 361 l 88 476 q 189 578 88 578 l 450 578 l 450 650 l 153 650 q 15 788 15 650 l 15 803 q 153 940 15 940 l 450 940 q 739 650 739 940 l 739 607 q 601 469 739 469 q 739 332 739 469 z "},"4":{"ha":761,"x_min":17,"x_max":740,"o":"m 603 940 q 740 803 740 940 l 740 138 q 603 0 740 0 l 588 0 q 451 138 451 0 l 451 361 l 190 361 l 154 361 q 17 499 17 361 l 17 789 l 17 803 q 154 940 17 940 l 168 940 q 306 803 306 940 l 306 579 l 451 579 l 451 651 l 451 803 q 588 940 451 940 l 603 940 z "},"5":{"ha":761,"x_min":19,"x_max":742,"o":"m 742 803 l 742 783 q 606 651 738 651 l 453 651 l 308 651 l 308 579 l 381 579 l 453 579 q 742 289 742 579 q 453 0 742 0 l 171 0 l 157 0 q 19 138 19 0 l 19 151 q 157 289 19 289 l 453 289 l 453 361 l 308 361 l 157 361 q 19 499 19 361 l 19 803 q 157 940 19 940 l 308 940 l 606 940 q 742 803 742 940 z "},"6":{"ha":761,"x_min":15,"x_max":739,"o":"m 739 803 l 739 788 q 601 650 739 650 l 449 650 l 304 650 l 304 578 l 376 578 l 449 578 q 739 289 739 578 q 450 0 739 0 l 304 0 q 100 85 185 0 q 15 289 15 168 l 15 582 l 15 650 q 304 940 15 940 l 601 940 q 739 803 739 940 m 449 289 l 449 361 l 304 361 l 304 289 l 449 289 z "},"7":{"ha":700,"x_min":17,"x_max":678,"o":"m 678 803 l 678 138 q 540 0 678 0 l 525 0 q 389 138 389 0 l 389 369 l 389 579 l 389 651 l 153 651 q 17 789 17 651 l 17 803 q 153 940 17 940 l 540 940 q 678 803 678 940 z "},"8":{"ha":761,"x_min":17,"x_max":743,"o":"m 743 332 l 743 289 q 453 0 743 0 l 306 0 q 17 289 17 0 l 17 332 q 154 469 17 469 q 17 607 17 469 l 17 650 q 306 940 17 940 l 453 940 q 743 650 743 940 l 743 607 q 606 469 743 469 q 743 332 743 469 m 453 289 l 453 361 l 306 361 l 306 289 l 453 289 m 453 578 l 453 650 l 306 650 l 306 578 l 453 578 z "},"9":{"ha":761,"x_min":15,"x_max":739,"o":"m 306 571 l 450 571 l 450 643 l 306 643 l 306 571 m 739 358 l 739 289 q 449 0 739 0 l 153 0 q 15 138 15 0 l 15 151 q 153 289 15 289 l 304 289 l 449 289 l 449 361 l 376 361 l 304 361 q 15 651 15 361 q 304 940 15 940 l 449 940 q 654 856 569 940 q 739 651 739 768 l 739 358 z "},"\u0000":{"ha":0,"x_min":0,"x_max":0,"o":""},"\r":{"ha":533,"x_min":0,"x_max":0,"o":""}," ":{"ha":533,"x_min":0,"x_max":0,"o":""},"E":{"ha":761,"x_min":19,"x_max":742,"o":"m 742 151 l 742 136 q 604 0 742 0 l 308 0 l 171 0 l 157 0 q 19 136 19 0 l 19 801 q 157 939 19 939 l 171 939 l 604 939 q 742 801 742 939 l 742 788 q 604 650 742 650 l 308 650 l 308 578 l 568 578 q 669 476 669 578 l 669 463 q 568 361 669 361 l 308 361 l 308 289 l 604 289 q 742 151 742 289 z "},"F":{"ha":761,"x_min":22,"x_max":746,"o":"m 746 803 l 746 788 q 608 650 746 650 l 311 650 l 311 578 l 572 578 q 672 478 672 578 l 672 463 q 572 361 672 361 l 311 361 l 311 138 q 174 0 311 0 l 160 0 q 22 138 22 0 l 22 803 q 160 940 22 940 l 174 940 l 608 940 q 746 803 746 940 z "},"G":{"ha":761,"x_min":19,"x_max":742,"o":"m 742 151 l 742 136 q 604 0 742 0 l 157 0 q 19 136 19 0 l 19 801 q 157 939 19 939 l 308 939 l 604 939 q 742 801 742 939 l 742 788 q 604 650 742 650 l 453 650 l 308 650 l 308 289 l 453 289 l 453 368 l 453 440 q 590 578 453 578 l 604 578 q 742 440 742 578 l 742 368 l 742 151 z "},"H":{"ha":761,"x_min":22,"x_max":744,"o":"m 744 803 l 744 138 q 607 0 744 0 l 593 0 q 456 138 456 0 l 456 361 l 311 361 l 311 138 q 174 0 311 0 l 158 0 q 22 138 22 0 l 22 803 q 158 940 22 940 l 174 940 q 311 803 311 940 l 311 579 l 456 579 l 456 803 q 593 940 456 940 l 607 940 q 744 803 744 940 z "},"I":{"ha":333,"x_min":22,"x_max":311,"o":"m 311 801 l 311 136 q 174 0 311 0 l 160 0 q 22 136 22 0 l 22 801 q 160 939 22 939 l 174 939 q 311 801 311 939 z "},"J":{"ha":547,"x_min":19,"x_max":525,"o":"m 525 801 l 525 289 q 236 0 525 0 l 157 0 q 19 136 19 0 l 19 151 q 157 289 19 289 l 236 289 l 236 801 q 374 939 236 939 l 388 939 q 525 801 525 939 z "},"K":{"ha":761,"x_min":19,"x_max":742,"o":"m 308 138 q 171 0 308 0 l 157 0 q 19 138 19 0 l 19 803 q 157 940 19 940 l 171 940 q 308 803 308 940 l 308 651 l 308 579 l 381 579 l 453 579 l 453 615 l 453 796 q 597 940 453 940 l 604 940 q 742 803 742 940 l 742 608 q 604 471 742 471 q 742 333 742 471 l 742 138 q 604 0 742 0 l 597 0 q 453 144 453 0 l 453 289 l 453 363 l 308 363 l 308 326 l 308 144 l 308 138 z "},"L":{"ha":761,"x_min":18,"x_max":740,"o":"m 740 151 l 740 136 q 603 0 740 0 l 156 0 q 18 136 18 0 l 18 801 q 156 939 18 939 l 169 939 q 307 801 307 939 l 307 650 l 307 289 l 603 289 q 740 151 740 289 z "},"M":{"ha":826,"x_min":15,"x_max":811,"o":"m 811 803 l 811 138 q 674 0 811 0 l 660 0 q 522 138 522 0 l 522 300 q 414 215 479 215 q 306 300 347 215 l 306 138 q 168 0 306 0 l 153 0 q 15 138 15 0 l 15 803 q 153 940 15 940 l 168 940 q 290 867 250 940 q 351 767 321 817 q 414 668 382 718 q 476 767 446 718 q 538 867 506 817 q 660 940 578 940 l 674 940 q 811 803 811 940 z "},"N":{"ha":761,"x_min":21,"x_max":743,"o":"m 743 803 l 743 138 q 606 0 743 0 l 592 0 q 474 67 515 0 q 392 198 433 133 q 310 329 350 263 l 310 138 q 172 0 310 0 l 158 0 q 21 138 21 0 l 21 803 q 158 940 21 940 l 172 940 q 286 879 244 940 q 370 743 328 811 q 454 607 413 675 l 454 803 q 592 940 454 940 l 606 940 q 743 803 743 940 z "},"O":{"ha":761,"x_min":21,"x_max":744,"o":"m 744 651 l 744 289 q 456 0 744 0 l 311 0 q 21 289 21 0 l 21 651 q 311 940 21 940 l 456 940 q 744 651 744 940 m 456 289 l 456 651 l 311 651 l 311 289 l 456 289 z "},"P":{"ha":761,"x_min":19,"x_max":743,"o":"m 308 144 l 308 138 q 176 0 308 4 l 157 0 q 19 138 19 0 l 19 803 q 157 940 19 940 l 308 940 l 606 940 q 743 803 743 940 l 743 607 l 743 499 q 606 361 743 361 l 597 361 l 308 361 l 308 325 l 308 144 m 453 578 l 453 651 l 308 651 l 308 578 l 381 578 l 453 578 z "},"Q":{"ha":761,"x_min":18,"x_max":742,"o":"m 742 642 l 742 281 q 525 0 742 56 l 525 -17 q 388 -154 525 -154 l 374 -154 q 236 -17 236 -154 l 236 0 q 18 281 18 56 l 18 642 q 308 931 18 931 l 453 931 q 742 642 742 931 m 453 281 l 453 642 l 308 642 l 308 281 l 453 281 z "},"R":{"ha":761,"x_min":19,"x_max":743,"o":"m 310 144 l 310 136 q 172 0 310 0 l 157 0 q 19 138 19 0 l 19 803 q 157 939 19 939 l 310 939 l 606 939 q 743 803 743 939 l 743 607 q 606 469 743 469 q 743 332 743 469 l 743 138 l 743 136 q 611 0 743 4 l 599 0 q 454 144 454 0 l 454 325 l 454 361 l 310 361 l 310 325 l 310 144 m 454 578 l 454 650 l 310 650 l 310 578 l 382 578 l 454 578 z "},"S":{"ha":761,"x_min":18,"x_max":742,"o":"m 742 442 l 742 138 q 604 0 742 0 l 175 0 l 156 0 q 18 138 18 0 l 18 153 q 156 289 18 289 l 451 289 l 451 363 l 307 363 l 156 363 q 18 499 18 363 l 18 803 q 156 940 18 940 l 307 940 l 604 940 q 742 803 742 940 l 742 789 q 604 651 742 651 l 451 651 l 307 651 l 307 579 l 379 579 l 451 579 l 604 579 q 742 442 742 579 z "},"T":{"ha":750,"x_min":14,"x_max":736,"o":"m 736 803 l 736 789 q 599 651 736 651 l 519 651 l 519 138 q 382 0 519 0 l 368 0 q 231 138 231 0 l 231 651 l 151 651 q 14 789 14 651 l 14 803 q 151 940 14 940 l 368 940 l 599 940 q 736 803 736 940 z "},"U":{"ha":761,"x_min":19,"x_max":743,"o":"m 743 568 l 743 289 q 453 0 743 0 l 308 0 q 19 289 19 0 l 19 650 l 19 803 q 157 940 19 940 l 171 940 q 308 803 308 940 l 308 650 l 308 289 l 453 289 l 453 650 l 453 803 q 590 940 453 940 l 606 940 q 743 803 743 940 l 743 568 z "},"V":{"ha":761,"x_min":17,"x_max":739,"o":"m 739 803 l 739 575 q 674 344 739 451 q 587 207 629 275 q 500 68 544 139 q 378 0 457 0 q 256 68 299 0 q 169 207 211 139 q 82 344 126 275 q 17 575 17 449 l 17 803 q 154 940 17 940 l 168 940 q 306 803 306 940 l 306 533 q 342 476 324 504 q 378 418 360 447 q 414 476 396 447 q 450 533 432 504 l 450 803 q 588 940 450 940 l 601 940 q 739 803 739 940 z "},"W":{"ha":1188,"x_min":15,"x_max":1172,"o":"m 1172 803 l 1172 575 q 1107 344 1172 451 q 1020 207 1063 275 q 933 68 978 139 q 811 0 892 0 q 689 68 731 0 q 642 143 665 106 q 594 219 618 181 q 547 143 571 181 q 500 68 524 106 q 378 0 457 0 q 254 68 297 0 q 168 207 211 139 q 82 344 125 275 q 15 575 15 450 l 15 803 q 153 940 15 940 l 168 940 q 304 803 304 940 l 304 533 q 341 475 324 504 q 378 418 358 446 q 413 475 396 446 q 450 533 431 504 l 450 803 q 588 940 450 940 l 601 940 q 739 803 739 940 l 739 575 l 739 533 q 775 475 757 504 q 811 418 793 446 q 847 475 829 446 q 883 533 865 504 l 883 803 q 1021 940 883 940 l 1035 940 q 1172 803 1172 940 z "},"X":{"ha":761,"x_min":17,"x_max":739,"o":"m 601 940 q 739 803 739 940 l 739 607 q 601 471 739 471 q 739 333 739 471 l 739 138 q 601 0 739 0 l 594 0 q 450 144 450 0 l 450 289 l 450 361 l 306 361 l 306 289 l 306 144 l 306 138 q 168 0 306 0 l 154 0 q 17 138 17 0 l 17 333 q 154 471 17 471 q 17 607 17 471 l 17 803 q 154 940 17 940 l 168 940 q 306 803 306 940 l 306 651 l 306 579 l 378 579 l 450 579 l 450 615 l 450 796 q 594 940 450 940 l 601 940 z "},"Y":{"ha":746,"x_min":18,"x_max":726,"o":"m 726 803 l 726 500 q 589 363 726 363 l 525 363 l 525 138 q 388 0 525 0 l 372 0 q 235 138 235 0 l 235 363 l 156 363 q 18 500 18 363 l 18 803 q 156 940 18 940 l 169 940 q 307 803 307 940 l 307 579 l 438 579 l 438 803 q 575 940 438 940 l 589 940 q 726 803 726 940 z "},"Z":{"ha":761,"x_min":18,"x_max":740,"o":"m 740 151 l 740 138 q 604 0 740 0 l 524 0 l 235 0 l 156 0 q 18 138 18 0 l 18 151 q 43 232 18 196 q 185 442 114 338 q 326 651 256 546 l 235 651 l 156 651 q 18 789 18 651 l 18 803 q 156 940 18 940 l 386 940 l 604 940 q 740 803 740 940 l 740 789 q 714 707 740 743 q 574 499 643 603 q 433 289 504 394 l 604 289 q 740 151 740 289 z "},"a":{"ha":761,"x_min":19,"x_max":742,"o":"m 742 803 l 742 138 q 604 0 742 0 l 590 0 q 453 138 453 0 l 453 289 l 308 289 l 308 138 q 171 0 308 0 l 156 0 q 19 138 19 0 l 19 803 q 156 940 19 940 l 604 940 q 742 803 742 940 m 453 578 l 453 650 l 308 650 l 308 578 l 453 578 z "},"b":{"ha":761,"x_min":18,"x_max":740,"o":"m 740 332 l 740 136 q 608 0 740 4 l 156 0 q 18 136 18 0 l 18 801 q 156 939 18 939 l 307 939 l 603 939 q 740 801 740 939 l 740 607 q 603 469 740 469 q 740 332 740 469 m 451 289 l 451 361 l 307 361 l 307 289 l 451 289 m 451 578 l 451 650 l 307 650 l 307 578 l 379 578 l 451 578 z "},"c":{"ha":761,"x_min":17,"x_max":740,"o":"m 740 153 l 740 138 q 603 0 740 0 l 154 0 q 17 138 17 0 l 17 803 q 154 940 17 940 l 306 940 l 603 940 q 740 803 740 940 l 740 789 q 603 651 740 651 l 450 651 l 306 651 l 306 290 l 603 290 q 740 153 740 290 z "},"d":{"ha":761,"x_min":17,"x_max":740,"o":"m 740 650 l 740 289 q 451 0 740 0 l 307 0 l 154 0 q 17 138 17 0 l 17 803 q 154 939 17 939 l 307 939 l 451 939 q 740 650 740 939 m 451 289 l 451 650 l 307 650 l 307 289 l 451 289 z "},"e":{"ha":761,"x_min":19,"x_max":742,"o":"m 742 151 l 742 136 q 604 0 742 0 l 308 0 l 171 0 l 157 0 q 19 136 19 0 l 19 801 q 157 939 19 939 l 171 939 l 604 939 q 742 801 742 939 l 742 788 q 604 650 742 650 l 308 650 l 308 578 l 568 578 q 669 476 669 578 l 669 463 q 568 361 669 361 l 308 361 l 308 289 l 604 289 q 742 151 742 289 z "},"f":{"ha":761,"x_min":22,"x_max":746,"o":"m 746 803 l 746 788 q 608 650 746 650 l 311 650 l 311 578 l 572 578 q 672 478 672 578 l 672 463 q 572 361 672 361 l 311 361 l 311 138 q 174 0 311 0 l 160 0 q 22 138 22 0 l 22 803 q 160 940 22 940 l 174 940 l 608 940 q 746 803 746 940 z "},"g":{"ha":761,"x_min":19,"x_max":742,"o":"m 742 151 l 742 136 q 604 0 742 0 l 157 0 q 19 136 19 0 l 19 801 q 157 939 19 939 l 308 939 l 604 939 q 742 801 742 939 l 742 788 q 604 650 742 650 l 453 650 l 308 650 l 308 289 l 453 289 l 453 368 l 453 440 q 590 578 453 578 l 604 578 q 742 440 742 578 l 742 368 l 742 151 z "},"h":{"ha":761,"x_min":22,"x_max":744,"o":"m 744 803 l 744 138 q 607 0 744 0 l 593 0 q 456 138 456 0 l 456 361 l 311 361 l 311 138 q 174 0 311 0 l 158 0 q 22 138 22 0 l 22 803 q 158 940 22 940 l 174 940 q 311 803 311 940 l 311 579 l 456 579 l 456 803 q 593 940 456 940 l 607 940 q 744 803 744 940 z "},"i":{"ha":333,"x_min":22,"x_max":311,"o":"m 311 801 l 311 136 q 174 0 311 0 l 160 0 q 22 136 22 0 l 22 801 q 160 939 22 939 l 174 939 q 311 801 311 939 z "},"j":{"ha":547,"x_min":19,"x_max":525,"o":"m 525 801 l 525 289 q 236 0 525 0 l 157 0 q 19 136 19 0 l 19 151 q 157 289 19 289 l 236 289 l 236 801 q 374 939 236 939 l 388 939 q 525 801 525 939 z "},"k":{"ha":761,"x_min":19,"x_max":742,"o":"m 308 138 q 171 0 308 0 l 157 0 q 19 138 19 0 l 19 803 q 157 940 19 940 l 171 940 q 308 803 308 940 l 308 651 l 308 579 l 381 579 l 453 579 l 453 615 l 453 796 q 597 940 453 940 l 604 940 q 742 803 742 940 l 742 608 q 604 471 742 471 q 742 333 742 471 l 742 138 q 604 0 742 0 l 597 0 q 453 144 453 0 l 453 289 l 453 363 l 308 363 l 308 326 l 308 144 l 308 138 z "},"l":{"ha":761,"x_min":18,"x_max":740,"o":"m 740 151 l 740 136 q 603 0 740 0 l 156 0 q 18 136 18 0 l 18 801 q 156 939 18 939 l 169 939 q 307 801 307 939 l 307 650 l 307 289 l 603 289 q 740 151 740 289 z "},"m":{"ha":826,"x_min":15,"x_max":811,"o":"m 811 803 l 811 138 q 674 0 811 0 l 660 0 q 522 138 522 0 l 522 300 q 414 215 479 215 q 306 300 347 215 l 306 138 q 168 0 306 0 l 153 0 q 15 138 15 0 l 15 803 q 153 940 15 940 l 168 940 q 290 867 250 940 q 351 767 321 817 q 414 668 382 718 q 476 767 446 718 q 538 867 506 817 q 660 940 578 940 l 674 940 q 811 803 811 940 z "},"n":{"ha":761,"x_min":21,"x_max":743,"o":"m 743 803 l 743 138 q 606 0 743 0 l 592 0 q 474 67 515 0 q 392 198 433 133 q 310 329 350 263 l 310 138 q 172 0 310 0 l 158 0 q 21 138 21 0 l 21 803 q 158 940 21 940 l 172 940 q 286 879 244 940 q 370 743 328 811 q 454 607 413 675 l 454 803 q 592 940 454 940 l 606 940 q 743 803 743 940 z "},"o":{"ha":761,"x_min":21,"x_max":744,"o":"m 744 651 l 744 289 q 456 0 744 0 l 311 0 q 21 289 21 0 l 21 651 q 311 940 21 940 l 456 940 q 744 651 744 940 m 456 289 l 456 651 l 311 651 l 311 289 l 456 289 z "},"p":{"ha":761,"x_min":19,"x_max":743,"o":"m 308 144 l 308 138 q 176 0 308 4 l 157 0 q 19 138 19 0 l 19 803 q 157 940 19 940 l 308 940 l 606 940 q 743 803 743 940 l 743 607 l 743 499 q 606 361 743 361 l 597 361 l 308 361 l 308 325 l 308 144 m 453 578 l 453 651 l 308 651 l 308 578 l 381 578 l 453 578 z "},"q":{"ha":761,"x_min":18,"x_max":742,"o":"m 742 642 l 742 281 q 525 0 742 56 l 525 -17 q 388 -154 525 -154 l 374 -154 q 236 -17 236 -154 l 236 0 q 18 281 18 56 l 18 642 q 308 931 18 931 l 453 931 q 742 642 742 931 m 453 281 l 453 642 l 308 642 l 308 281 l 453 281 z "},"r":{"ha":761,"x_min":19,"x_max":743,"o":"m 310 144 l 310 136 q 172 0 310 0 l 157 0 q 19 138 19 0 l 19 803 q 157 939 19 939 l 310 939 l 606 939 q 743 803 743 939 l 743 607 q 606 469 743 469 q 743 332 743 469 l 743 138 l 743 136 q 611 0 743 4 l 599 0 q 454 144 454 0 l 454 325 l 454 361 l 310 361 l 310 325 l 310 144 m 454 578 l 454 650 l 310 650 l 310 578 l 382 578 l 454 578 z "},"s":{"ha":761,"x_min":18,"x_max":742,"o":"m 742 442 l 742 138 q 604 0 742 0 l 175 0 l 156 0 q 18 138 18 0 l 18 153 q 156 289 18 289 l 451 289 l 451 363 l 307 363 l 156 363 q 18 499 18 363 l 18 803 q 156 940 18 940 l 307 940 l 604 940 q 742 803 742 940 l 742 789 q 604 651 742 651 l 451 651 l 307 651 l 307 579 l 379 579 l 451 579 l 604 579 q 742 442 742 579 z "},"t":{"ha":750,"x_min":14,"x_max":736,"o":"m 736 803 l 736 789 q 599 651 736 651 l 519 651 l 519 138 q 382 0 519 0 l 368 0 q 231 138 231 0 l 231 651 l 151 651 q 14 789 14 651 l 14 803 q 151 940 14 940 l 368 940 l 599 940 q 736 803 736 940 z "},"u":{"ha":761,"x_min":19,"x_max":743,"o":"m 743 568 l 743 289 q 453 0 743 0 l 308 0 q 19 289 19 0 l 19 650 l 19 803 q 157 940 19 940 l 171 940 q 308 803 308 940 l 308 650 l 308 289 l 453 289 l 453 650 l 453 803 q 590 940 453 940 l 606 940 q 743 803 743 940 l 743 568 z "},"v":{"ha":761,"x_min":17,"x_max":739,"o":"m 739 803 l 739 575 q 674 344 739 451 q 587 207 629 275 q 500 68 544 139 q 378 0 457 0 q 256 68 299 0 q 169 207 211 139 q 82 344 126 275 q 17 575 17 449 l 17 803 q 154 940 17 940 l 168 940 q 306 803 306 940 l 306 533 q 342 476 324 504 q 378 418 360 447 q 414 476 396 447 q 450 533 432 504 l 450 803 q 588 940 450 940 l 601 940 q 739 803 739 940 z "},"w":{"ha":1188,"x_min":15,"x_max":1172,"o":"m 1172 803 l 1172 575 q 1107 344 1172 451 q 1020 207 1063 275 q 933 68 978 139 q 811 0 892 0 q 689 68 731 0 q 642 143 665 106 q 594 219 618 181 q 547 143 571 181 q 500 68 524 106 q 378 0 457 0 q 254 68 297 0 q 168 207 211 139 q 82 344 125 275 q 15 575 15 450 l 15 803 q 153 940 15 940 l 168 940 q 304 803 304 940 l 304 533 q 341 475 324 504 q 378 418 358 446 q 413 475 396 446 q 450 533 431 504 l 450 803 q 588 940 450 940 l 601 940 q 739 803 739 940 l 739 575 l 739 533 q 775 475 757 504 q 811 418 793 446 q 847 475 829 446 q 883 533 865 504 l 883 803 q 1021 940 883 940 l 1035 940 q 1172 803 1172 940 z "},"x":{"ha":761,"x_min":17,"x_max":739,"o":"m 601 940 q 739 803 739 940 l 739 607 q 601 471 739 471 q 739 333 739 471 l 739 138 q 601 0 739 0 l 594 0 q 450 144 450 0 l 450 289 l 450 361 l 306 361 l 306 289 l 306 144 l 306 138 q 168 0 306 0 l 154 0 q 17 138 17 0 l 17 333 q 154 471 17 471 q 17 607 17 471 l 17 803 q 154 940 17 940 l 168 940 q 306 803 306 940 l 306 651 l 306 579 l 378 579 l 450 579 l 450 615 l 450 796 q 594 940 450 940 l 601 940 z "},"y":{"ha":746,"x_min":18,"x_max":726,"o":"m 726 803 l 726 500 q 589 363 726 363 l 525 363 l 525 138 q 388 0 525 0 l 372 0 q 235 138 235 0 l 235 363 l 156 363 q 18 500 18 363 l 18 803 q 156 940 18 940 l 169 940 q 307 803 307 940 l 307 579 l 438 579 l 438 803 q 575 940 438 940 l 589 940 q 726 803 726 940 z "},"z":{"ha":761,"x_min":18,"x_max":740,"o":"m 740 151 l 740 138 q 604 0 740 0 l 524 0 l 235 0 l 156 0 q 18 138 18 0 l 18 151 q 43 232 18 196 q 185 442 114 338 q 326 651 256 546 l 235 651 l 156 651 q 18 789 18 651 l 18 803 q 156 940 18 940 l 386 940 l 604 940 q 740 803 740 940 l 740 789 q 714 707 740 743 q 574 499 643 603 q 433 289 504 394 l 604 289 q 740 151 740 289 z "},"!":{"ha":332,"x_min":19,"x_max":315,"o":"m 178 289 q 315 151 315 289 l 315 138 q 178 0 315 0 l 158 0 q 21 138 21 0 l 21 151 q 158 289 21 289 l 178 289 m 308 801 l 308 496 q 171 358 308 358 l 157 358 q 19 496 19 358 l 19 800 l 19 801 q 157 938 19 938 l 171 938 q 308 801 306 938 z "},":":{"ha":336,"x_min":22,"x_max":317,"o":"m 317 151 l 317 132 q 179 0 310 0 l 158 0 q 22 132 26 0 l 22 151 q 158 289 22 289 l 179 289 q 317 151 317 289 m 317 796 l 317 776 q 179 644 310 644 l 158 644 q 22 776 26 644 l 22 796 q 158 933 22 933 l 179 933 q 317 796 317 933 z "},";":{"ha":338,"x_min":21,"x_max":317,"o":"m 317 796 l 317 776 q 179 644 310 644 l 158 644 q 22 776 26 644 l 22 796 q 158 933 22 933 l 179 933 q 317 796 317 933 m 315 160 l 315 140 q 178 -119 315 -119 l 174 -119 q 101 -47 101 -119 l 101 -28 q 71 39 101 14 q 21 144 21 81 l 21 160 q 158 297 21 297 l 178 297 q 315 160 315 297 z "},"?":{"ha":761,"x_min":18,"x_max":740,"o":"m 463 153 l 463 138 q 325 0 463 0 l 306 0 q 168 133 172 0 l 168 153 q 306 290 168 290 l 325 290 q 463 153 463 290 m 315 576 l 379 576 l 451 576 l 451 649 l 307 649 l 156 649 q 18 786 18 649 l 18 800 q 156 938 18 938 l 451 938 q 740 649 740 938 q 451 360 740 360 l 315 360 l 294 360 l 258 360 q 157 460 157 360 l 157 475 q 258 576 157 576 l 294 576 l 315 576 z "},".":{"ha":336,"x_min":22,"x_max":317,"o":"m 317 151 l 317 132 q 179 0 310 0 l 158 0 q 22 132 26 0 l 22 151 q 158 289 22 289 l 179 289 q 317 151 317 289 z "},",":{"ha":339,"x_min":21,"x_max":315,"o":"m 315 160 l 315 140 q 178 -119 315 -119 l 174 -119 q 101 -47 101 -119 l 101 -28 q 71 39 101 14 q 21 144 21 81 l 21 160 q 158 297 21 297 l 178 297 q 315 160 315 297 z "},"D":{"ha":761,"x_min":17,"x_max":740,"o":"m 740 650 l 740 289 q 451 0 740 0 l 307 0 l 154 0 q 17 138 17 0 l 17 803 q 154 939 17 939 l 307 939 l 451 939 q 740 650 740 939 m 451 289 l 451 650 l 307 650 l 307 289 l 451 289 z "},"B":{"ha":761,"x_min":18,"x_max":740,"o":"m 740 332 l 740 136 q 608 0 740 4 l 156 0 q 18 136 18 0 l 18 801 q 156 939 18 939 l 307 939 l 603 939 q 740 801 740 939 l 740 607 q 603 469 740 469 q 740 332 740 469 m 451 289 l 451 361 l 307 361 l 307 289 l 451 289 m 451 578 l 451 650 l 307 650 l 307 578 l 379 578 l 451 578 z "},"C":{"ha":761,"x_min":17,"x_max":740,"o":"m 740 153 l 740 138 q 603 0 740 0 l 154 0 q 17 138 17 0 l 17 803 q 154 940 17 940 l 306 940 l 603 940 q 740 803 740 940 l 740 789 q 603 651 740 651 l 450 651 l 306 651 l 306 290 l 603 290 q 740 153 740 290 z "},"A":{"ha":761,"x_min":19,"x_max":742,"o":"m 742 803 l 742 138 q 604 0 742 0 l 590 0 q 453 138 453 0 l 453 289 l 308 289 l 308 138 q 171 0 308 0 l 156 0 q 19 138 19 0 l 19 803 q 156 940 19 940 l 604 940 q 742 803 742 940 m 453 578 l 453 650 l 308 650 l 308 578 l 453 578 z "}}}
